#!OML:ASF I:\Actors\actors\Patient Classification 2\Patient 1\Session 1\actor1.ASF
:FULLY-SPECIFIED
:DEGREES
675
root 0.06051 18.6485 5.21803 1.69837 -28.3828 -7.51672
lowerback 14.2998 3.79638 -8.71525
upperback 8.2396 3.72546 -3.71492
thorax 0.474079 1.5745 0.460879
lowerneck 7.68759 -13.8873 -17.8333
upperneck 33.5963 -21.4178 5.82499
head 12.7554 -11.6042 2.90682
rclavicle -6.36111e-015 9.54166e-015
rhumerus 19.9816 3.90011 -31.2771
rradius 131.976
rwrist -38.678
rhand 44.2441 -36.537
rfingers 7.12502
rthumb 65.8058 -42.3125
lclavicle -6.36111e-015 9.54166e-015
lhumerus -86.0535 -37.2884 101.172
lradius 109.24
lwrist -6.28819
lhand 1.16411 -59.9475
lfingers 7.12502
lthumb 26.7049 -31.8118
rfemur 0 0 0
rtibia 0
rfoot 0 0
rtoes 0
lfemur -4.27547 6.54928 -10.6402
ltibia 29.1373
lfoot -30.3619 21.8882
ltoes -49.7064
676
root 0.0573529 18.6489 5.23434 1.81942 -28.4691 -7.58256
lowerback 14.1301 3.68374 -8.6848
upperback 8.154 3.60425 -3.52083
thorax 0.468485 1.51507 0.673138
lowerneck 7.32404 -13.6239 -17.7834
upperneck 33.5537 -21.2 6.41905
head 12.8365 -11.4448 3.12883
rclavicle 2.78299e-014 -6.36111e-015
rhumerus 19.5885 3.9204 -32.4294
rradius 131.806
rwrist -38.8341
rhand 44.6219 -36.0663
rfingers 7.12502
rthumb 66.0974 -41.3033
lclavicle 2.78299e-014 -6.36111e-015
lhumerus -86.1104 -36.9192 101.454
lradius 109.001
lwrist -6.24938
lhand 1.0991 -60.0778
lfingers 7.12502
lthumb 26.6427 -31.9325
rfemur 0 0 0
rtibia 0
rfoot 0 0
rtoes 0
lfemur -4.28572 6.59554 -10.6
ltibia 29.1171
lfoot -30.4899 21.9544
ltoes -49.7268
677
root 0.0567178 18.6491 5.25225 1.89739 -28.5023 -7.61858
lowerback 14.0109 3.55532 -8.67289
upperback 8.05031 3.45298 -3.3108
thorax 0.418437 1.44187 0.913036
lowerneck 7.00645 -13.3092 -17.7148
upperneck 33.4159 -20.9225 7.0653
head 12.86 -11.2534 3.38694
rclavicle 6.83819e-014 -3.02153e-014
rhumerus 19.1849 4.14339 -33.7102
rradius 131.649
rwrist -38.762
rhand 45.2637 -36.3668
rfingers 7.12502
rthumb 66.5873 -40.6575
lclavicle 6.83819e-014 -3.02153e-014
lhumerus -86.2075 -36.4448 101.769
lradius 108.759
lwrist -6.20511
lhand 1.12888 -60.1836
lfingers 7.12502
lthumb 26.6712 -32.0428
rfemur 0 0 0
rtibia 0
rfoot 0 0
rtoes 0
lfemur -4.29197 6.57578 -10.6028
ltibia 29.1227
lfoot -30.5219 22.0228
ltoes -49.8146
678
root 0.0566012 18.649 5.27083 1.94564 -28.5122 -7.6085
lowerback 13.9541 3.51133 -8.62508
upperback 7.99227 3.40888 -3.17329
thorax 0.38293 1.42245 1.03896
lowerneck 6.56164 -13.1209 -17.2458
upperneck 33.2713 -20.7695 7.59272
head 12.8514 -11.0755 3.5194
rclavicle -2.78299e-014 9.06458e-014
rhumerus 18.7727 4.07337 -34.8865
rradius 131.523
rwrist -38.8611
rhand 45.7202 -36.8617
rfingers 7.12502
rthumb 66.9316 -40.4541
lclavicle -2.78299e-014 9.06458e-014
lhumerus -86.1756 -36.3356 101.979
lradius 108.513
lwrist -6.18725
lhand 1.18347 -60.2525
lfingers 7.12502
lthumb 26.7234 -32.1196
rfemur 0 0 0
rtibia 0
rfoot 0 0
rtoes 0
lfemur -4.30355 6.56515 -10.6511
ltibia 29.1443
lfoot -30.4598 22.0077
ltoes -49.8526
679
root 0.056206 18.6484 5.28845 2.0245 -28.5363 -7.63931
lowerback 13.9465 3.65837 -8.43442
upperback 8.06755 3.62891 -3.15053
thorax 0.456879 1.53322 0.927951
lowerneck 5.79649 -13.2148 -16.0793
upperneck 33.1874 -20.9668 8.01562
head 12.8779 -10.9677 3.43488
rclavicle -7.15625e-015 2.06736e-014
rhumerus 18.0176 3.37403 -36.1312
rradius 131.338
rwrist -38.9477
rhand 46.1068 -37.2081
rfingers 7.12502
rthumb 67.2202 -40.1924
lclavicle -7.15625e-015 2.06736e-014
lhumerus -85.822 -37.0318 101.978
lradius 108.235
lwrist -6.12259
lhand 1.2631 -60.2391
lfingers 7.12502
lthumb 26.7996 -32.1179
rfemur 0 0 0
rtibia 0
rfoot 0 0
rtoes 0
lfemur -4.32848 6.59034 -10.6542
ltibia 29.1682
lfoot -30.425 22.0044
ltoes -49.8409
680
root 0.0564734 18.6479 5.30526 2.09235 -28.5624 -7.66626
lowerback 13.8965 3.68458 -8.39139
upperback 8.01048 3.67548 -2.97871
thorax 0.408995 1.55832 1.07859
lowerneck 5.26035 -13.0304 -15.5426
upperneck 33.1826 -20.8467 8.55708
head 12.9518 -10.7893 3.54727
rclavicle -1.43125e-014 -4.77083e-015
rhumerus 17.1538 3.27097 -37.6016
rradius 131.097
rwrist -38.6687
rhand 46.4343 -37.2254
rfingers 7.12502
rthumb 67.4625 -39.6818
lclavicle -1.43125e-014 -4.77083e-015
lhumerus -85.6988 -37.0158 102.234
lradius 107.942
lwrist -6.11043
lhand 1.29541 -60.2014
lfingers 7.12502
lthumb 26.8306 -32.0848
rfemur 0 0 0
rtibia 0
rfoot 0 0
rtoes 0
lfemur -4.34106 6.61902 -10.6601
ltibia 29.1915
lfoot -30.4377 22.0158
ltoes -49.8011
681
root 0.0570328 18.6479 5.32168 2.15822 -28.5792 -7.68847
lowerback 13.8443 3.72147 -8.33947
upperback 7.9406 3.73661 -2.81529
thorax 0.348295 1.59199 1.21305
lowerneck 4.77103 -12.8123 -15.0041
upperneck 33.1264 -20.7103 9.18062
head 13.0042 -10.598 3.69829
rclavicle 1.90833e-014 1.59028e-015
rhumerus 16.441 3.25355 -38.8107
rradius 130.93
rwrist -38.5296
rhand 45.3882 -37.279
rfingers 7.12502
rthumb 66.6816 -41.3814
lclavicle 1.90833e-014 1.59028e-015
lhumerus -85.5888 -36.9977 102.474
lradius 107.674
lwrist -6.09016
lhand 1.27476 -60.2445
lfingers 7.12502
lthumb 26.8108 -32.1249
rfemur 0 0 0
rtibia 0
rfoot 0 0
rtoes 0
lfemur -4.35228 6.64287 -10.6696
ltibia 29.2104
lfoot -30.447 21.9563
ltoes -49.7273
682
root 0.0567251 18.6484 5.34014 2.24057 -28.5827 -7.7503
lowerback 13.74 3.77274 -8.26488
upperback 7.8834 3.82697 -2.62241
thorax 0.325245 1.6391 1.3646
lowerneck 4.28401 -12.5835 -14.4736
upperneck 33.0455 -20.5783 9.86012
head 13.0567 -10.4033 3.87208
rclavicle 1.82882e-014 -6.04305e-014
rhumerus 16.1858 3.12186 -39.5475
rradius 130.759
rwrist -38.952
rhand 43.5535 -37.8549
rfingers 7.12502
rthumb 65.2672 -44.5805
lclavicle 1.82882e-014 -6.04305e-014
lhumerus -85.4611 -37.0371 102.762
lradius 107.36
lwrist -6.10518
lhand 1.2961 -60.2718
lfingers 7.12502
lthumb 26.8312 -32.1554
rfemur 0 0 0
rtibia 0
rfoot 0 0
rtoes 0
lfemur -4.35118 6.6433 -10.6425
ltibia 29.2203
lfoot -30.4641 21.8898
ltoes -49.6345
683
root 0.0577947 18.6488 5.36193 2.3422 -28.5537 -7.7713
lowerback 13.5331 3.80247 -8.20747
upperback 7.84874 3.90036 -2.43995
thorax 0.381958 1.6746 1.52353
lowerneck 3.77466 -12.3354 -13.9394
upperneck 32.9367 -20.4391 10.603
head 13.1103 -10.1978 4.07011
rclavicle 2.94201e-014 2.06736e-014
rhumerus 15.5479 2.83726 -40.8354
rradius 130.479
rwrist -39.2254
rhand 43.1228 -38.3269
rfingers 7.12502
rthumb 64.9277 -45.6237
lclavicle 2.94201e-014 2.06736e-014
lhumerus -85.2266 -37.0903 102.992
lradius 106.986
lwrist -6.14083
lhand 1.19917 -60.2135
lfingers 7.12502
lthumb 26.7385 -32.0829
rfemur 0 0 0
rtibia 0
rfoot 0 0
rtoes 0
lfemur -4.3954 6.59849 -10.6756
ltibia 29.2336
lfoot -30.5489 21.9117
ltoes -49.6134
684
root 0.0611887 18.6496 5.38257 2.46393 -28.4805 -7.75395
lowerback 13.2805 3.79863 -8.13793
upperback 7.83804 3.93695 -2.27814
thorax 0.49374 1.69027 1.66287
lowerneck 3.18144 -12.0977 -13.3043
upperneck 32.8342 -20.2704 11.205
head 13.1481 -9.97282 4.19789
rclavicle -1.08934e-013 8.42847e-014
rhumerus 14.4066 2.5217 -42.6617
rradius 130.187
rwrist -39.1716
rhand 44.1505 -38.417
rfingers 7.12502
rthumb 65.7333 -44.3238
lclavicle -1.08934e-013 8.42847e-014
lhumerus -84.8214 -37.0798 103.091
lradius 106.577
lwrist -6.24227
lhand 1.00243 -60.1971
lfingers 7.12502
lthumb 26.5502 -32.0378
rfemur 0 0 0
rtibia 0
rfoot 0 0
rtoes 0
lfemur -4.51046 6.57039 -10.7453
ltibia 29.2595
lfoot -30.632 21.9007
ltoes -49.5978
685
root 0.0641833 18.6497 5.39999 2.5776 -28.3798 -7.79444
lowerback 13.2217 3.81258 -8.10381
upperback 7.75584 3.96787 -2.03418
thorax 0.418902 1.70824 1.89533
lowerneck 2.54642 -11.8515 -12.7059
upperneck 32.8501 -20.0621 11.6601
head 13.228 -9.74026 4.27863
rclavicle -9.54166e-015 1.27222e-014
rhumerus 13.3962 2.35735 -44.1993
rradius 129.953
rwrist -39.1107
rhand 44.9816 -38.4363
rfingers 7.12502
rthumb 66.3728 -43.148
lclavicle -9.54166e-015 1.27222e-014
lhumerus -84.4918 -36.9943 103.343
lradius 106.134
lwrist -6.36586
lhand 0.951949 -60.2336
lfingers 7.12502
lthumb 26.5019 -32.0671
rfemur 0 0 0
rtibia 0
rfoot 0 0
rtoes 0
lfemur -4.61054 6.61125 -10.7278
ltibia 29.2928
lfoot -30.6154 21.7793
ltoes -49.5728
686
root 0.0667447 18.649 5.41768 2.67052 -28.2674 -7.85145
lowerback 13.1888 3.84085 -8.05658
upperback 7.66703 4.01613 -1.77907
thorax 0.321444 1.7361 2.12796
lowerneck 1.95063 -11.5746 -12.1652
upperneck 32.8674 -19.8449 12.1971
head 13.321 -9.50401 4.4059
rclavicle 4.69132e-014 -6.36111e-015
rhumerus 12.8539 2.23017 -45.3761
rradius 129.614
rwrist -39.0457
rhand 44.8053 -38.5179
rfingers 7.12502
rthumb 66.2381 -43.4887
lclavicle 4.69132e-014 -6.36111e-015
lhumerus -84.2573 -36.9991 103.669
lradius 105.743
lwrist -6.38047
lhand 1.07357 -60.2524
lfingers 7.12502
lthumb 26.6183 -32.1034
rfemur 0 0 0
rtibia 0
rfoot 0 0
rtoes 0
lfemur -4.68201 6.63788 -10.6893
ltibia 29.3316
lfoot -30.5835 21.6882
ltoes -49.6494
687
root 0.0692732 18.6481 5.4364 2.72537 -28.1398 -7.85821
lowerback 13.174 3.87448 -7.9684
upperback 7.57071 4.0726 -1.59223
thorax 0.212306 1.77114 2.26411
lowerneck 1.46431 -11.3068 -11.5638
upperneck 32.7924 -19.659 12.777
head 13.3565 -9.27806 4.54292
rclavicle 4.29375e-014 -1.11319e-014
rhumerus 12.4602 2.04083 -46.4848
rradius 129.103
rwrist -38.9411
rhand 44.1814 -38.5465
rfingers 7.12502
rthumb 65.7572 -44.4101
lclavicle 4.29375e-014 -1.11319e-014
lhumerus -84.1412 -37.1405 103.995
lradius 105.41
lwrist -6.29959
lhand 1.04575 -60.2076
lfingers 7.12502
lthumb 26.5916 -32.0546
rfemur 0 0 0
rtibia 0
rfoot 0 0
rtoes 0
lfemur -4.73896 6.61299 -10.7058
ltibia 29.3753
lfoot -30.6006 21.6503
ltoes -49.7616
